<?xml version="1.0" encoding="utf-8"?>
<!-- Designed by Vexels.com - 2020 All Rights Reserved - https://vexels.com/terms-and-conditions/  -->
<svg version="1.1" id="Layer_1" xmlns="http://www.w3.org/2000/svg" xmlns:xlink="http://www.w3.org/1999/xlink" x="0px" y="0px"
	 viewBox="0 0 1200 1200" enable-background="new 0 0 1200 1200" xml:space="preserve">
<path fill="#404040" d="M1095.845,514.857c-20.113-54.089-53.228-93.441-75.142-119.48c-6.879-8.175-12.823-15.239-16.633-20.742
	c-2.604-3.76-4.758-7.071-6.683-10.031c-10.412-15.999-15.162-23.303-45.143-33.839c-23.317-8.191-86.519-29.542-133.15-44.323
	v-28.02c0-8.798-15.188-13.258-45.146-13.258c-5.962,0-14.515,0.296-21.404,1.714c-9.231,1.899-13.913,5.783-13.913,11.544v8.189
	c-42.855-5.961-108.195-11.216-130.75-2.963c-1.745,0.639-177.461,67.889-240.977,157.11
	c-53.033,74.501-73.743,244.138-77.078,274.47C79.2,752.198,50.03,779.96,50.03,801.462l-0.016,2.654
	c-0.069,8.434-0.143,17.156,6.646,24c7.148,7.209,20.639,10.422,43.741,10.422c47.852,0,149.273-59.645,153.567-62.185l-0.095-0.161
	c21.179,3.686,43.554,9.437,68.153,18.045c22.088,7.732,57.237,28.082,97.936,51.647C503.07,894.003,606.5,953.888,679.635,954.807
	c1.576,0.021,3.15,0.029,4.719,0.029c55.465,0,106.826-12.387,156.862-37.813c54.003-27.441,106.784-70.162,161.257-130.459
	c4.022,1.078,6.949,1.923,8.637,2.503c11.333,3.897,29.392,12.44,48.51,21.486c35.339,16.72,59.341,27.702,70.593,27.985
	c0.412,0.008,0.827,0.016,1.246,0.016c4.119,0,8.571-0.602,11.843-3.834c4.787-4.732,4.698-11.684,4.502-26.918
	c-0.156-12.033-0.391-30.221,1.6-56.785C1155.152,674.386,1118.026,574.523,1095.845,514.857z M751.496,260.394
	c8.603-3.94,44.834-2.572,54.733,0.974v21.034c-14.831-4.608-27.003-8.194-34.267-9.972c-0.628-1.972-1.291-4.372-1.103-5.276
	c0.338-1.627,24.339-2.085,24.339-2.085c-10.302-4.121-28.546-2.87-34.408-2.33c-1.072,0.099-1.888,0.977-1.934,2.053
	c-0.055,1.33-0.156,3.179-0.316,4.915c-2.207-0.388-4.556-0.782-7.044-1.18V260.394z M377.387,428.22
	c53.181-74.709,198.823-139.287,234.914-152.489c25.392-9.292,125.888,1.875,155.832,9.004
	c28.095,6.689,147.163,46.688,179.843,58.171c11.752,4.129,18.751,7.327,23.836,10.998c-1.178,9.584,1.332,21.323,4.653,36.791
	c2.123,9.881,4.529,21.08,6.49,34.079c4.077,27.013-20.005,226.943-34.127,335.284c-0.133-0.029-0.261-0.059-0.396-0.088
	c1.805-37.25,10.661-220.375,15.196-322.741c0.688-15.532-9.37-79.662-9.37-79.662s-9.756-3.285-24.991-8.398
	c3.305,15.714,8.79,50.472,2.815,88.06c0,0-28.895-77.387-38.821-100.126c-57.597-19.27-136.287-45.438-143.919-47.134
	c-12.168-2.704-84.498-9.464-84.498-9.464c31.546,75.259-12.168,186.571-12.168,186.571s15.323-65.345-18.927-132.492
	c26.159,111.003-64.894,324.393-64.894,324.393l-112.304-11.046c-11.566-1.138-23.243-0.236-34.498,2.664l-16.642,4.288
	c-9.361-45.237,4.813-223.315,4.813-223.315c-48.67,97.436-44.355,233.504-44.355,233.504l-14.681,3.783
	c-18.902-29.402,16.674-185.839,16.674-185.839c-23.008,46.992-51.38,175.407-55.416,203.341c-3.4,1.329-6.448,2.558-9.039,3.63
	C308.516,647.822,329.847,495.002,377.387,428.22z M197.279,792.213l-74.052,22.647c6.873-2.69,14.804-12.453,14.804-12.453
	c-10.365,5.902-33.349,4.914-33.349,4.914c4.958-12.168,38.306-25.328,38.306-25.328c-45.363-0.071-69.673,24.059-78.509,35.247
	c-0.897-1.648-1.317-3.677-1.487-6.272c0.585-6.582,22.387-33.022,79.877-38.023c16.569-1.44,32.747-2.285,49.081-2.195
	c11.261,0.062,22.602,0.571,34.198,1.68c2.408,0.23,4.84,0.512,7.271,0.794C224.362,778.242,211.602,785.106,197.279,792.213z
	 M684.394,941.972c-1.529,0-3.063-0.011-4.595-0.029c-35.768-0.449-79.961-16.177-125.56-37.767
	c-17.377-8.227-34.952-17.299-52.35-26.714c-26.002-14.071-51.597-28.883-75.484-42.713c-41.261-23.889-76.898-44.522-100.13-52.653
	c-72.203-25.273-125.976-27.066-184.522-21.969c-9.166,0.797-17.565,2.13-25.269,3.85c39.109-16.35,99.499-35.547,180.946-57.474
	l4.288-1.157l0.069-0.679c16.905-7.285,94.268-38.872,152.996-34.243c40.47,3.194,239.785,45.498,388.742,78.89
	c-51.835-7.227-167.76-28.58-337.761-59.615c-32.95-6.015-61.74-13.97-61.74-13.97s-7.661,8.112,15.322,33.799l-82.019-23.434
	L224.106,738.82l-36.052,9.914c0,0,21.933-0.322,37.147-0.968v0c0.674-0.029,51.406-8.495,51.406-8.495s-31.385,9.283-31.514,9.261
	c0,0-0.008,0.003-0.009,0.003c28.112,4.383,90.351,20.612,123.682,41.209c40.108,24.786,162.015,98.188,182.018,105.026
	c5.358,1.832,7.702,3.454,8.288,4.851c27.89,9.321,57.2,16.826,87.919,21.263c162.236,23.434,249.942-88.765,249.942-88.765
	s-108.779,59.247-230.059,51.36c-133.888-8.706-342.551-146.463-342.551-146.463s139.314,71.935,175.304,78.414
	c27.875,5.018,107.256-61.289,104.552-65.796c-141.677-41.686-133.371-54.818-133.371-54.818
	c98.889,14.777,237.776,44.943,450.492,75.356c-2.615,14.571-36.76,42.328-36.76,42.328c33.401-13.489,69.606-34.897,73.131-36.997
	c11.95,2.835,22.297,5.341,30.702,7.438C887.829,892.662,793.543,941.972,684.394,941.972z M1115.05,732.511
	c0,0-28.842-43.263-40.559-144.209s-18.026-116.269-18.026-116.269l-47.769-51.375l-44.483,343.275
	c-0.931-0.222-1.873-0.446-2.825-0.673c5.677-43.687,39.422-306.412,34.291-340.408c-2.023-13.39-4.47-24.795-6.633-34.858
	c-1.442-6.714-2.724-12.77-3.587-18.127c0.376,0.577,0.747,1.143,1.144,1.753c1.986,3.052,4.206,6.464,6.889,10.34
	c4.154,5.999,10.277,13.277,17.367,21.703c21.341,25.357,53.593,63.68,72.924,115.677c10.808,29.071,25.219,67.849,36.341,108.554
	L1115.05,732.511z"/>
</svg>
